<svg viewBox="0 0 246 84" fill="none" xmlns="http://www.w3.org/2000/svg">
<path d="M10.0272 34.28L13.8672 32.84L27.0672 0.919998H28.5072L42.1872 33.56L44.5872 34.28V35H38.8272C37.1632 35 35.8032 34.632 34.7472 33.896C33.6912 33.128 32.9072 32.136 32.3952 30.92L29.9472 25.16H18.4752L15.3072 32.84L18.9072 34.28V35H10.0272V34.28ZM18.9552 23.96H29.4672L24.1872 11.336L18.9552 23.96ZM52.9816 35.72C51.5736 35.72 50.4216 35.32 49.5256 34.52C48.6296 33.688 48.1816 32.648 48.1816 31.4C48.1816 30.184 48.5496 29.208 49.2856 28.472C50.0216 27.704 50.9336 27.32 52.0216 27.32C52.2776 27.32 52.5336 27.352 52.7896 27.416C53.0456 27.448 53.2216 27.464 53.3176 27.464L53.9416 27.56V34.28C55.6056 34.024 57.2056 32.024 58.7416 28.28L44.1016 2.84L41.7016 2.12V1.4H47.9416C49.5096 1.4 50.7896 1.768 51.7816 2.504C52.7736 3.208 53.6536 4.2 54.4216 5.48L62.5336 19.544L69.5416 3.56L65.9416 2.12V1.4H74.8216V2.12L70.9816 3.56L60.1816 28.28C59.0616 30.904 57.9256 32.808 56.7736 33.992C55.6216 35.144 54.3576 35.72 52.9816 35.72ZM77.2291 34.28L80.1091 33.56V2.84L77.2291 2.12V1.4H102.909V10.04H101.469C100.861 9.56 100.333 8.952 99.8851 8.216C98.8611 6.488 98.3491 4.616 98.3491 2.6H88.0291V33.56L90.9091 34.28V35H77.2291V34.28ZM115.886 35.72C114.478 35.72 113.326 35.32 112.43 34.52C111.534 33.688 111.086 32.648 111.086 31.4C111.086 30.184 111.454 29.208 112.19 28.472C112.926 27.704 113.838 27.32 114.926 27.32C115.182 27.32 115.438 27.352 115.694 27.416C115.95 27.448 116.126 27.464 116.222 27.464L116.846 27.56V34.28C118.51 34.024 120.11 32.024 121.646 28.28L107.006 2.84L104.606 2.12V1.4H110.846C112.414 1.4 113.694 1.768 114.686 2.504C115.678 3.208 116.558 4.2 117.326 5.48L125.438 19.544L132.446 3.56L128.846 2.12V1.4H137.726V2.12L133.886 3.56L123.086 28.28C121.966 30.904 120.83 32.808 119.678 33.992C118.526 35.144 117.262 35.72 115.886 35.72ZM154.292 35.72C149.172 35.72 145.172 34.2 142.292 31.16C139.412 28.12 137.972 23.8 137.972 18.2C137.972 14.52 138.596 11.368 139.844 8.744C141.124 6.088 142.9 4.088 145.172 2.744C147.476 1.368 150.132 0.679998 153.14 0.679998C154.964 0.679998 156.804 1.208 158.66 2.264C159.364 2.648 160.068 3.16 160.772 3.8C161.316 2.968 161.876 2.312 162.452 1.832C163.028 1.416 163.348 1.192 163.412 1.16H164.612V10.28H162.692C162.276 8.744 161.652 7.352 160.82 6.104C160.052 4.888 159.092 3.88 157.94 3.08C156.82 2.28 155.524 1.88 154.052 1.88C151.844 1.88 150.004 3.16 148.532 5.72C147.092 8.28 146.372 12.44 146.372 18.2C146.372 24.056 147.156 28.248 148.724 30.776C150.324 33.272 152.5 34.52 155.252 34.52C156.756 34.52 158.18 34.104 159.524 33.272C160.9 32.408 162.004 31.272 162.836 29.864C163.7 28.456 164.132 26.968 164.132 25.4H165.332C165.332 27.224 164.836 28.936 163.844 30.536C162.884 32.104 161.556 33.368 159.86 34.328C158.196 35.256 156.34 35.72 154.292 35.72ZM176.39 34.28L179.27 33.56V2.6H173.75C173.75 4.552 173.222 6.424 172.166 8.216C171.718 8.952 171.206 9.56 170.63 10.04H169.19V1.4H197.27V10.04H195.83C195.222 9.56 194.694 8.952 194.246 8.216C193.222 6.488 192.71 4.616 192.71 2.6H187.19V33.56L190.07 34.28V35H176.39V34.28ZM216.242 35.72C213.106 35.72 210.354 35.048 207.986 33.704C205.65 32.328 203.842 30.328 202.562 27.704C201.282 25.08 200.642 21.912 200.642 18.2C200.642 14.488 201.282 11.32 202.562 8.696C203.842 6.072 205.65 4.088 207.986 2.744C210.354 1.368 213.106 0.679998 216.242 0.679998C219.378 0.679998 222.114 1.368 224.45 2.744C226.818 4.088 228.642 6.072 229.922 8.696C231.202 11.32 231.842 14.488 231.842 18.2C231.842 21.912 231.202 25.08 229.922 27.704C228.642 30.328 226.818 32.328 224.45 33.704C222.114 35.048 219.378 35.72 216.242 35.72ZM216.242 34.76C217.49 34.76 218.642 34.232 219.698 33.176C220.786 32.12 221.682 30.36 222.386 27.896C223.09 25.432 223.442 22.2 223.442 18.2C223.442 14.2 223.09 10.968 222.386 8.504C221.682 6.04 220.786 4.28 219.698 3.224C218.642 2.168 217.49 1.64 216.242 1.64C214.994 1.64 213.826 2.168 212.738 3.224C211.682 4.28 210.802 6.04 210.098 8.504C209.394 10.968 209.042 14.2 209.042 18.2C209.042 22.2 209.394 25.432 210.098 27.896C210.802 30.36 211.682 32.12 212.738 33.176C213.826 34.232 214.994 34.76 216.242 34.76ZM0.613753 83V82.28L3.49375 81.56V50.84L0.613753 50.12V49.4H32.5338V50.12L29.6538 50.84V81.56L32.5338 82.28V83H18.8538V82.28L21.7338 81.56V50.6H11.4138V81.56L14.2938 82.28V83H0.613753ZM38.2769 83V82.28L41.1569 81.56V50.84L38.2769 50.12V49.4H51.9569V50.12L49.0769 50.84V75.08L60.3569 54.44V50.84L57.4769 50.12V49.4H71.1569V50.12L68.2769 50.84V81.56L71.1569 82.28V83H57.4769V82.28L60.3569 81.56V57.32L49.0769 77.96V81.56L51.9569 82.28V83H38.2769ZM76.9244 83V82.28L79.8044 81.56V50.84L76.9244 50.12V49.4H90.6044V50.12L87.7244 50.84V65.72H98.0444V50.84L95.1644 50.12V49.4H108.844V50.12L105.964 50.84V81.56L108.844 82.28V83H95.1644V82.28L98.0444 81.56V66.92H87.7244V81.56L90.6044 82.28V83H76.9244ZM129.948 83.72C126.812 83.72 124.06 83.048 121.692 81.704C119.356 80.328 117.548 78.328 116.268 75.704C114.988 73.08 114.348 69.912 114.348 66.2C114.348 62.488 114.988 59.32 116.268 56.696C117.548 54.072 119.356 52.088 121.692 50.744C124.06 49.368 126.812 48.68 129.948 48.68C133.084 48.68 135.82 49.368 138.156 50.744C140.524 52.088 142.348 54.072 143.628 56.696C144.908 59.32 145.548 62.488 145.548 66.2C145.548 69.912 144.908 73.08 143.628 75.704C142.348 78.328 140.524 80.328 138.156 81.704C135.82 83.048 133.084 83.72 129.948 83.72ZM129.948 82.76C131.196 82.76 132.348 82.232 133.404 81.176C134.492 80.12 135.388 78.36 136.092 75.896C136.796 73.432 137.148 70.2 137.148 66.2C137.148 62.2 136.796 58.968 136.092 56.504C135.388 54.04 134.492 52.28 133.404 51.224C132.348 50.168 131.196 49.64 129.948 49.64C128.7 49.64 127.532 50.168 126.444 51.224C125.388 52.28 124.508 54.04 123.804 56.504C123.1 58.968 122.748 62.2 122.748 66.2C122.748 70.2 123.1 73.432 123.804 75.896C124.508 78.36 125.388 80.12 126.444 81.176C127.532 82.232 128.7 82.76 129.948 82.76ZM167.399 82.28L170.279 81.56V68.84C169.703 69.16 169.143 69.4 168.599 69.56C167.223 70.04 165.703 70.28 164.039 70.28C160.103 70.28 157.191 69.544 155.303 68.072C153.447 66.6 152.519 64.536 152.519 61.88V50.84L149.639 50.12V49.4H163.319V50.12L160.439 50.84V61.88C160.439 64.472 160.887 66.328 161.783 67.448C162.679 68.536 164.071 69.08 165.959 69.08C167.047 69.08 168.071 68.84 169.031 68.36C169.511 68.136 169.927 67.896 170.279 67.64V50.84L167.399 50.12V49.4H181.079V50.12L178.199 50.84V81.56L181.079 82.28V83H167.399V82.28ZM186.82 82.28L189.7 81.56V50.84L186.82 50.12V49.4H212.5V58.04H211.06C210.452 57.56 209.924 56.952 209.476 56.216C208.452 54.488 207.94 52.616 207.94 50.6H197.62V65.72H203.14C203.364 64.504 203.78 63.368 204.388 62.312C204.644 61.832 204.948 61.368 205.3 60.92H206.74V71.72H205.3C204.948 71.272 204.644 70.808 204.388 70.328C203.78 69.272 203.364 68.136 203.14 66.92H197.62V81.8H208.9C208.9 79.784 209.412 77.912 210.436 76.184C210.884 75.448 211.412 74.84 212.02 74.36H213.46V83H186.82V82.28ZM224.718 82.28L227.598 81.56V50.6H222.078C222.078 52.552 221.55 54.424 220.494 56.216C220.046 56.952 219.534 57.56 218.958 58.04H217.518V49.4H245.598V58.04H244.158C243.55 57.56 243.022 56.952 242.574 56.216C241.55 54.488 241.038 52.616 241.038 50.6H235.518V81.56L238.398 82.28V83H224.718V82.28Z" fill="black"/>
</svg>
