<svg viewBox="0 0 88 101" fill="none" xmlns="http://www.w3.org/2000/svg">
<path d="M5 51.5L9 55.5L11.5 49L18.5 59L34.5 58L40 47H43L46.25 52.5L49.5 58H63L69.5 54.5L71.5 46L81.5 55.5L80.2838 51.527L77 43.5L68.5 38.5L51 37L43 41.5L38.5 40.5L33 38.5L11.5 40.5L9 43.5L5 51.5Z" fill="black"/>
<path d="M81.5 54.5H84V43.5L79 24L75 14.5L64 5.5L57 7.5L49.5 1L30 2L14 14.5L8 38.5V43.5L15.5 26L26 16L45.5 12.5L61.5 16L74 31L80.2838 51.527L81.5 54.5Z" fill="black"/>
<path d="M28.5 83V78L41.5 73H45.5L57 80L56 83L46.25 77H38.5L30 83H28.5Z" fill="black"/>
<path d="M9 55.5L5 51.5L9 43.5L11.5 40.5L33 38.5L38.5 40.5L43 41.5L51 37L68.5 38.5L77 43.5L80.2838 51.527M9 55.5L11.5 49L18.5 59L34.5 58L40 47H43L46.25 52.5M9 55.5L9.26316 60.5M46.25 52.5L49.5 58H63L69.5 54.5L71.5 46L81.5 55.5L80.2838 51.527M46.25 52.5L47.5 61.5M47.5 61.5L43 67L37 62.5L33 66L34.5 71L41.5 69L45.5 66L49.5 67L46.25 69H51L52.5 63.5L47.5 61.5ZM10.5 84L24.5 100.5H55L67 94.5L77 81.5M10.5 84L9.26316 60.5M10.5 84L7 81.5L8 77L1 61.5L5 54.5L9.26316 60.5M77 81.5L79 59L85 54.5L87 59L80 81.5H77ZM34.5 90L44 85.5H45.5L49.5 91.5L47.5 97M80.2838 51.527L74 31L61.5 16L45.5 12.5L26 16L15.5 26L8 43.5V38.5L14 14.5L30 2L49.5 1L57 7.5L64 5.5L75 14.5L79 24L84 43.5V54.5H81.5L80.2838 51.527ZM28.5 83V78L41.5 73H45.5L57 80L56 83L46.25 77H38.5L30 83H28.5Z" stroke="black"/>
</svg>
