<svg viewBox="0 0 14 2746" fill="none" xmlns="http://www.w3.org/2000/svg">
<path d="M7 141.341C9.94552 141.341 12.3333 138.953 12.3333 136.007C12.3333 133.062 9.94552 130.674 7 130.674C4.05448 130.674 1.66667 133.062 1.66667 136.007C1.66667 138.953 4.05448 141.341 7 141.341ZM7 11.3407C9.94552 11.3407 12.3333 8.95284 12.3333 6.00732C12.3333 3.0618 9.94552 0.673996 7 0.673996C4.05448 0.673996 1.66667 3.0618 1.66667 6.00732C1.66667 8.95284 4.05448 11.3407 7 11.3407ZM8 136.007L8 6.00732H6L6 136.007H8Z" fill="black"/>
<path d="M7 271.333C9.94552 271.333 12.3333 268.946 12.3333 266C12.3333 263.054 9.94552 260.667 7 260.667C4.05448 260.667 1.66667 263.054 1.66667 266C1.66667 268.946 4.05448 271.333 7 271.333ZM7 141.333C9.94552 141.333 12.3333 138.946 12.3333 136C12.3333 133.054 9.94552 130.667 7 130.667C4.05448 130.667 1.66667 133.054 1.66667 136C1.66667 138.946 4.05448 141.333 7 141.333ZM8 266L8 136H6L6 266H8Z" fill="black"/>
<path d="M7 401.333C9.94552 401.333 12.3333 398.946 12.3333 396C12.3333 393.054 9.94552 390.667 7 390.667C4.05448 390.667 1.66667 393.054 1.66667 396C1.66667 398.946 4.05448 401.333 7 401.333ZM7 271.333C9.94552 271.333 12.3333 268.946 12.3333 266C12.3333 263.054 9.94552 260.667 7 260.667C4.05448 260.667 1.66667 263.054 1.66667 266C1.66667 268.946 4.05448 271.333 7 271.333ZM8 396L8 266H6L6 396H8Z" fill="black"/>
<path d="M7 531.333C9.94552 531.333 12.3333 528.946 12.3333 526C12.3333 523.054 9.94552 520.667 7 520.667C4.05448 520.667 1.66667 523.054 1.66667 526C1.66667 528.946 4.05448 531.333 7 531.333ZM7 401.333C9.94552 401.333 12.3333 398.946 12.3333 396C12.3333 393.054 9.94552 390.667 7 390.667C4.05448 390.667 1.66667 393.054 1.66667 396C1.66667 398.946 4.05448 401.333 7 401.333ZM8 526L8 396H6L6 526H8Z" fill="black"/>
<path d="M7 1068.33C9.94552 1068.33 12.3333 1065.95 12.3333 1063C12.3333 1060.05 9.94552 1057.67 7 1057.67C4.05448 1057.67 1.66667 1060.05 1.66667 1063C1.66667 1065.95 4.05448 1068.33 7 1068.33ZM7 938.333C9.94552 938.333 12.3333 935.946 12.3333 933C12.3333 930.054 9.94552 927.667 7 927.667C4.05448 927.667 1.66667 930.054 1.66667 933C1.66667 935.946 4.05448 938.333 7 938.333ZM8 1063L8 933H6L6 1063H8Z" fill="black"/>
<path d="M7 1198.33C9.94552 1198.33 12.3333 1195.95 12.3333 1193C12.3333 1190.05 9.94552 1187.67 7 1187.67C4.05448 1187.67 1.66667 1190.05 1.66667 1193C1.66667 1195.95 4.05448 1198.33 7 1198.33ZM7 1068.33C9.94552 1068.33 12.3333 1065.95 12.3333 1063C12.3333 1060.05 9.94552 1057.67 7 1057.67C4.05448 1057.67 1.66667 1060.05 1.66667 1063C1.66667 1065.95 4.05448 1068.33 7 1068.33ZM8 1193L8 1063H6L6 1193H8Z" fill="black"/>
<path d="M7 1328.33C9.94552 1328.33 12.3333 1325.95 12.3333 1323C12.3333 1320.05 9.94552 1317.67 7 1317.67C4.05448 1317.67 1.66667 1320.05 1.66667 1323C1.66667 1325.95 4.05448 1328.33 7 1328.33ZM7 1198.33C9.94552 1198.33 12.3333 1195.95 12.3333 1193C12.3333 1190.05 9.94552 1187.67 7 1187.67C4.05448 1187.67 1.66667 1190.05 1.66667 1193C1.66667 1195.95 4.05448 1198.33 7 1198.33ZM8 1323L8 1193H6L6 1323H8Z" fill="black"/>
<path d="M7 1821.33C9.94552 1821.33 12.3333 1818.95 12.3333 1816C12.3333 1813.05 9.94552 1810.67 7 1810.67C4.05448 1810.67 1.66667 1813.05 1.66667 1816C1.66667 1818.95 4.05448 1821.33 7 1821.33ZM7 1691.33C9.94552 1691.33 12.3333 1688.95 12.3333 1686C12.3333 1683.05 9.94552 1680.67 7 1680.67C4.05448 1680.67 1.66667 1683.05 1.66667 1686C1.66667 1688.95 4.05448 1691.33 7 1691.33ZM8 1816L8 1686H6L6 1816H8Z" fill="black"/>
<path d="M7 1951.33C9.94552 1951.33 12.3333 1948.95 12.3333 1946C12.3333 1943.05 9.94552 1940.67 7 1940.67C4.05448 1940.67 1.66667 1943.05 1.66667 1946C1.66667 1948.95 4.05448 1951.33 7 1951.33ZM7 1821.33C9.94552 1821.33 12.3333 1818.95 12.3333 1816C12.3333 1813.05 9.94552 1810.67 7 1810.67C4.05448 1810.67 1.66667 1813.05 1.66667 1816C1.66667 1818.95 4.05448 1821.33 7 1821.33ZM8 1946L8 1816H6L6 1946H8Z" fill="black"/>
<path d="M7 2354.85C10.7808 2354.85 13.8457 2351.78 13.8457 2348C13.8457 2344.22 10.7808 2341.15 7 2341.15C3.21923 2341.15 0.154316 2344.22 0.154316 2348C0.154316 2351.78 3.21923 2354.85 7 2354.85ZM7 1952.85C10.7808 1952.85 13.8457 1949.78 13.8457 1946C13.8457 1942.22 10.7808 1939.15 7 1939.15C3.21923 1939.15 0.154316 1942.22 0.154316 1946C0.154316 1949.78 3.21923 1952.85 7 1952.85ZM8.28357 2348L8.28357 1946H5.71643L5.71643 2348H8.28357Z" fill="black"/>
<path d="M7 2485.33C9.94552 2485.33 12.3333 2482.95 12.3333 2480C12.3333 2477.05 9.94552 2474.67 7 2474.67C4.05448 2474.67 1.66667 2477.05 1.66667 2480C1.66667 2482.95 4.05448 2485.33 7 2485.33ZM7 2355.33C9.94552 2355.33 12.3333 2352.95 12.3333 2350C12.3333 2347.05 9.94552 2344.67 7 2344.67C4.05448 2344.67 1.66667 2347.05 1.66667 2350C1.66667 2352.95 4.05448 2355.33 7 2355.33ZM8 2480L8 2350H6L6 2480H8Z" fill="black"/>
<path d="M7 2615.33C9.94552 2615.33 12.3333 2612.95 12.3333 2610C12.3333 2607.05 9.94552 2604.67 7 2604.67C4.05448 2604.67 1.66667 2607.05 1.66667 2610C1.66667 2612.95 4.05448 2615.33 7 2615.33ZM7 2485.33C9.94552 2485.33 12.3333 2482.95 12.3333 2480C12.3333 2477.05 9.94552 2474.67 7 2474.67C4.05448 2474.67 1.66667 2477.05 1.66667 2480C1.66667 2482.95 4.05448 2485.33 7 2485.33ZM8 2610L8 2480H6L6 2610H8Z" fill="black"/>
<path d="M7 2745.33C9.94552 2745.33 12.3333 2742.95 12.3333 2740C12.3333 2737.05 9.94552 2734.67 7 2734.67C4.05448 2734.67 1.66667 2737.05 1.66667 2740C1.66667 2742.95 4.05448 2745.33 7 2745.33ZM7 2615.33C9.94552 2615.33 12.3333 2612.95 12.3333 2610C12.3333 2607.05 9.94552 2604.67 7 2604.67C4.05448 2604.67 1.66667 2607.05 1.66667 2610C1.66667 2612.95 4.05448 2615.33 7 2615.33ZM8 2740L8 2610H6L6 2740H8Z" fill="black"/>
<path d="M7 1691.33C9.94552 1691.33 12.3333 1688.95 12.3333 1686C12.3333 1683.05 9.94552 1680.67 7 1680.67C4.05448 1680.67 1.66667 1683.05 1.66667 1686C1.66667 1688.95 4.05448 1691.33 7 1691.33ZM7 1328.33C9.94552 1328.33 12.3333 1325.95 12.3333 1323C12.3333 1320.05 9.94552 1317.67 7 1317.67C4.05448 1317.67 1.66667 1320.05 1.66667 1323C1.66667 1325.95 4.05448 1328.33 7 1328.33ZM8 1686L8 1323H6L6 1686H8Z" fill="black"/>
<path d="M7 938.333C9.94552 938.333 12.3333 935.946 12.3333 933C12.3333 930.054 9.94552 927.667 7 927.667C4.05448 927.667 1.66667 930.054 1.66667 933C1.66667 935.946 4.05448 938.333 7 938.333ZM7 531.333C9.94552 531.333 12.3333 528.946 12.3333 526C12.3333 523.054 9.94552 520.667 7 520.667C4.05448 520.667 1.66667 523.054 1.66667 526C1.66667 528.946 4.05448 531.333 7 531.333ZM8 933L8 526H6L6 933H8Z" fill="black"/>
</svg>
